<?xml version="1.0" standalone="no"?>
<!DOCTYPE svg PUBLIC "-//W3C//DTD SVG 20010904//EN"
 "http://www.w3.org/TR/2001/REC-SVG-20010904/DTD/svg10.dtd">
<svg version="1.0" xmlns="http://www.w3.org/2000/svg"
 width="180.000000pt" height="180.000000pt" viewBox="0 0 180.000000 180.000000"
 preserveAspectRatio="xMidYMid meet">
<metadata>
Created by potrace 1.16, written by Peter Selinger 2001-2019
</metadata>
<g transform="translate(0.000000,180.000000) scale(0.100000,-0.100000)" stroke="none">
<path style="fill:#ff2b2b;" d="M730 1775 c-189 -43 -311 -108 -444 -234 -174 -167 -263 -366 -273
-611 -11 -263 84 -499 274 -681 174 -166 364 -239 621 -239 155 0 252 21 384
83 224 105 406 322 473 562 25 91 32 330 11 428 -34 165 -107 306 -220 425
-122 128 -259 210 -421 253 -106 27 -313 35 -405 14z m365 -195 c127 -40 202
-86 301 -185 77 -76 98 -106 138 -185 77 -157 95 -316 56 -474 -110 -435 -584
-667 -980 -480 -192 91 -327 247 -392 454 -30 97 -32 270 -3 370 75 263 278
454 549 516 85 19 241 12 331 -16z"/>
<path style="fill:#ff2b2b;" d="M688 1327 c-115 -33 -209 -159 -179 -240 21 -55 121 -71 152 -24 44
65 75 89 114 89 32 0 45 -6 72 -36 18 -20 33 -45 33 -57 0 -41 -4 -46 -252
-312 -133 -142 -138 -149 -138 -190 0 -33 6 -49 23 -65 23 -21 30 -22 285 -22
l262 0 0 90 0 90 -125 0 c-69 0 -125 3 -125 6 0 3 49 59 109 124 86 93 113
130 126 171 23 67 17 177 -13 235 -25 48 -91 110 -139 130 -50 21 -150 26
-205 11z"/>
<path style="fill:#ff2b2b;" d="M1153 1330 c-29 -12 -43 -40 -43 -88 0 -53 31 -82 89 -82 57 0 91 33
91 89 0 67 -69 108 -137 81z"/>
<path style="fill:#ff2b2b;" d="M1155 1098 c-44 -24 -45 -28 -45 -335 l0 -293 37 0 c50 0 107 41 127
91 13 32 16 83 16 265 l0 226 -29 29 c-31 31 -70 37 -106 17z"/>
</g>
</svg>
